<?xml version="1.0" encoding="utf-8" standalone="no"?>
<!DOCTYPE svg PUBLIC "-//W3C//DTD SVG 1.1//EN"
  "http://www.w3.org/Graphics/SVG/1.1/DTD/svg11.dtd">
<svg xmlns:xlink="http://www.w3.org/1999/xlink" width="460.8pt" height="345.6pt" viewBox="0 0 460.8 345.6" xmlns="http://www.w3.org/2000/svg" version="1.1">
 <metadata>
  <rdf:RDF xmlns:dc="http://purl.org/dc/elements/1.1/" xmlns:cc="http://creativecommons.org/ns#" xmlns:rdf="http://www.w3.org/1999/02/22-rdf-syntax-ns#">
   <cc:Work>
    <dc:type rdf:resource="http://purl.org/dc/dcmitype/StillImage"/>
    <dc:date>2025-02-20T18:47:56.563169</dc:date>
    <dc:format>image/svg+xml</dc:format>
    <dc:creator>
     <cc:Agent>
      <dc:title>Matplotlib v3.9.1, https://matplotlib.org/</dc:title>
     </cc:Agent>
    </dc:creator>
   </cc:Work>
  </rdf:RDF>
 </metadata>
 <defs>
  <style type="text/css">*{stroke-linejoin: round; stroke-linecap: butt}</style>
 </defs>
 <g id="figure_1">
  <g id="patch_1">
   <path d="M 0 345.6 
L 460.8 345.6 
L 460.8 0 
L 0 0 
z
" style="fill: #ffffff"/>
  </g>
  <g id="axes_1">
   <g id="patch_2">
    <path d="M 72.338786 292.12 
L 445.68 292.12 
L 445.68 15.12 
L 72.338786 15.12 
z
" style="fill: #ffffff"/>
   </g>
   <g id="matplotlib.axis_1">
    <g id="xtick_1">
     <g id="line2d_1">
      <defs>
       <path id="m756f454958" d="M 0 0 
L 0 3.5 
" style="stroke: #000000; stroke-width: 0.8"/>
      </defs>
      <g>
       <use xlink:href="#m756f454958" x="103.450554" y="292.12" style="stroke: #000000; stroke-width: 0.8"/>
      </g>
     </g>
     <g id="text_1">
      <!-- 1100 -->
      <g transform="translate(85.635554 309.757812) scale(0.14 -0.14)">
       <defs>
        <path id="DejaVuSans-31" d="M 794 531 
L 1825 531 
L 1825 4091 
L 703 3866 
L 703 4441 
L 1819 4666 
L 2450 4666 
L 2450 531 
L 3481 531 
L 3481 0 
L 794 0 
L 794 531 
z
" transform="scale(0.015625)"/>
        <path id="DejaVuSans-30" d="M 2034 4250 
Q 1547 4250 1301 3770 
Q 1056 3291 1056 2328 
Q 1056 1369 1301 889 
Q 1547 409 2034 409 
Q 2525 409 2770 889 
Q 3016 1369 3016 2328 
Q 3016 3291 2770 3770 
Q 2525 4250 2034 4250 
z
M 2034 4750 
Q 2819 4750 3233 4129 
Q 3647 3509 3647 2328 
Q 3647 1150 3233 529 
Q 2819 -91 2034 -91 
Q 1250 -91 836 529 
Q 422 1150 422 2328 
Q 422 3509 836 4129 
Q 1250 4750 2034 4750 
z
" transform="scale(0.015625)"/>
       </defs>
       <use xlink:href="#DejaVuSans-31"/>
       <use xlink:href="#DejaVuSans-31" x="63.623047"/>
       <use xlink:href="#DejaVuSans-30" x="127.246094"/>
       <use xlink:href="#DejaVuSans-30" x="190.869141"/>
      </g>
     </g>
    </g>
    <g id="xtick_2">
     <g id="line2d_2">
      <g>
       <use xlink:href="#m756f454958" x="181.229974" y="292.12" style="stroke: #000000; stroke-width: 0.8"/>
      </g>
     </g>
     <g id="text_2">
      <!-- 1150 -->
      <g transform="translate(163.414974 309.757812) scale(0.14 -0.14)">
       <defs>
        <path id="DejaVuSans-35" d="M 691 4666 
L 3169 4666 
L 3169 4134 
L 1269 4134 
L 1269 2991 
Q 1406 3038 1543 3061 
Q 1681 3084 1819 3084 
Q 2600 3084 3056 2656 
Q 3513 2228 3513 1497 
Q 3513 744 3044 326 
Q 2575 -91 1722 -91 
Q 1428 -91 1123 -41 
Q 819 9 494 109 
L 494 744 
Q 775 591 1075 516 
Q 1375 441 1709 441 
Q 2250 441 2565 725 
Q 2881 1009 2881 1497 
Q 2881 1984 2565 2268 
Q 2250 2553 1709 2553 
Q 1456 2553 1204 2497 
Q 953 2441 691 2322 
L 691 4666 
z
" transform="scale(0.015625)"/>
       </defs>
       <use xlink:href="#DejaVuSans-31"/>
       <use xlink:href="#DejaVuSans-31" x="63.623047"/>
       <use xlink:href="#DejaVuSans-35" x="127.246094"/>
       <use xlink:href="#DejaVuSans-30" x="190.869141"/>
      </g>
     </g>
    </g>
    <g id="xtick_3">
     <g id="line2d_3">
      <g>
       <use xlink:href="#m756f454958" x="259.009393" y="292.12" style="stroke: #000000; stroke-width: 0.8"/>
      </g>
     </g>
     <g id="text_3">
      <!-- 1200 -->
      <g transform="translate(241.194393 309.757812) scale(0.14 -0.14)">
       <defs>
        <path id="DejaVuSans-32" d="M 1228 531 
L 3431 531 
L 3431 0 
L 469 0 
L 469 531 
Q 828 903 1448 1529 
Q 2069 2156 2228 2338 
Q 2531 2678 2651 2914 
Q 2772 3150 2772 3378 
Q 2772 3750 2511 3984 
Q 2250 4219 1831 4219 
Q 1534 4219 1204 4116 
Q 875 4013 500 3803 
L 500 4441 
Q 881 4594 1212 4672 
Q 1544 4750 1819 4750 
Q 2544 4750 2975 4387 
Q 3406 4025 3406 3419 
Q 3406 3131 3298 2873 
Q 3191 2616 2906 2266 
Q 2828 2175 2409 1742 
Q 1991 1309 1228 531 
z
" transform="scale(0.015625)"/>
       </defs>
       <use xlink:href="#DejaVuSans-31"/>
       <use xlink:href="#DejaVuSans-32" x="63.623047"/>
       <use xlink:href="#DejaVuSans-30" x="127.246094"/>
       <use xlink:href="#DejaVuSans-30" x="190.869141"/>
      </g>
     </g>
    </g>
    <g id="xtick_4">
     <g id="line2d_4">
      <g>
       <use xlink:href="#m756f454958" x="336.788813" y="292.12" style="stroke: #000000; stroke-width: 0.8"/>
      </g>
     </g>
     <g id="text_4">
      <!-- 1250 -->
      <g transform="translate(318.973813 309.757812) scale(0.14 -0.14)">
       <use xlink:href="#DejaVuSans-31"/>
       <use xlink:href="#DejaVuSans-32" x="63.623047"/>
       <use xlink:href="#DejaVuSans-35" x="127.246094"/>
       <use xlink:href="#DejaVuSans-30" x="190.869141"/>
      </g>
     </g>
    </g>
    <g id="xtick_5">
     <g id="line2d_5">
      <g>
       <use xlink:href="#m756f454958" x="414.568232" y="292.12" style="stroke: #000000; stroke-width: 0.8"/>
      </g>
     </g>
     <g id="text_5">
      <!-- 1300 -->
      <g transform="translate(396.753232 309.757812) scale(0.14 -0.14)">
       <defs>
        <path id="DejaVuSans-33" d="M 2597 2516 
Q 3050 2419 3304 2112 
Q 3559 1806 3559 1356 
Q 3559 666 3084 287 
Q 2609 -91 1734 -91 
Q 1441 -91 1130 -33 
Q 819 25 488 141 
L 488 750 
Q 750 597 1062 519 
Q 1375 441 1716 441 
Q 2309 441 2620 675 
Q 2931 909 2931 1356 
Q 2931 1769 2642 2001 
Q 2353 2234 1838 2234 
L 1294 2234 
L 1294 2753 
L 1863 2753 
Q 2328 2753 2575 2939 
Q 2822 3125 2822 3475 
Q 2822 3834 2567 4026 
Q 2313 4219 1838 4219 
Q 1578 4219 1281 4162 
Q 984 4106 628 3988 
L 628 4550 
Q 988 4650 1302 4700 
Q 1616 4750 1894 4750 
Q 2613 4750 3031 4423 
Q 3450 4097 3450 3541 
Q 3450 3153 3228 2886 
Q 3006 2619 2597 2516 
z
" transform="scale(0.015625)"/>
       </defs>
       <use xlink:href="#DejaVuSans-31"/>
       <use xlink:href="#DejaVuSans-33" x="63.623047"/>
       <use xlink:href="#DejaVuSans-30" x="127.246094"/>
       <use xlink:href="#DejaVuSans-30" x="190.869141"/>
      </g>
     </g>
    </g>
    <g id="text_6">
     <!-- Energy [eV] -->
     <g transform="translate(217.718143 327.307187) scale(0.14 -0.14)">
      <defs>
       <path id="DejaVuSans-45" d="M 628 4666 
L 3578 4666 
L 3578 4134 
L 1259 4134 
L 1259 2753 
L 3481 2753 
L 3481 2222 
L 1259 2222 
L 1259 531 
L 3634 531 
L 3634 0 
L 628 0 
L 628 4666 
z
" transform="scale(0.015625)"/>
       <path id="DejaVuSans-6e" d="M 3513 2113 
L 3513 0 
L 2938 0 
L 2938 2094 
Q 2938 2591 2744 2837 
Q 2550 3084 2163 3084 
Q 1697 3084 1428 2787 
Q 1159 2491 1159 1978 
L 1159 0 
L 581 0 
L 581 3500 
L 1159 3500 
L 1159 2956 
Q 1366 3272 1645 3428 
Q 1925 3584 2291 3584 
Q 2894 3584 3203 3211 
Q 3513 2838 3513 2113 
z
" transform="scale(0.015625)"/>
       <path id="DejaVuSans-65" d="M 3597 1894 
L 3597 1613 
L 953 1613 
Q 991 1019 1311 708 
Q 1631 397 2203 397 
Q 2534 397 2845 478 
Q 3156 559 3463 722 
L 3463 178 
Q 3153 47 2828 -22 
Q 2503 -91 2169 -91 
Q 1331 -91 842 396 
Q 353 884 353 1716 
Q 353 2575 817 3079 
Q 1281 3584 2069 3584 
Q 2775 3584 3186 3129 
Q 3597 2675 3597 1894 
z
M 3022 2063 
Q 3016 2534 2758 2815 
Q 2500 3097 2075 3097 
Q 1594 3097 1305 2825 
Q 1016 2553 972 2059 
L 3022 2063 
z
" transform="scale(0.015625)"/>
       <path id="DejaVuSans-72" d="M 2631 2963 
Q 2534 3019 2420 3045 
Q 2306 3072 2169 3072 
Q 1681 3072 1420 2755 
Q 1159 2438 1159 1844 
L 1159 0 
L 581 0 
L 581 3500 
L 1159 3500 
L 1159 2956 
Q 1341 3275 1631 3429 
Q 1922 3584 2338 3584 
Q 2397 3584 2469 3576 
Q 2541 3569 2628 3553 
L 2631 2963 
z
" transform="scale(0.015625)"/>
       <path id="DejaVuSans-67" d="M 2906 1791 
Q 2906 2416 2648 2759 
Q 2391 3103 1925 3103 
Q 1463 3103 1205 2759 
Q 947 2416 947 1791 
Q 947 1169 1205 825 
Q 1463 481 1925 481 
Q 2391 481 2648 825 
Q 2906 1169 2906 1791 
z
M 3481 434 
Q 3481 -459 3084 -895 
Q 2688 -1331 1869 -1331 
Q 1566 -1331 1297 -1286 
Q 1028 -1241 775 -1147 
L 775 -588 
Q 1028 -725 1275 -790 
Q 1522 -856 1778 -856 
Q 2344 -856 2625 -561 
Q 2906 -266 2906 331 
L 2906 616 
Q 2728 306 2450 153 
Q 2172 0 1784 0 
Q 1141 0 747 490 
Q 353 981 353 1791 
Q 353 2603 747 3093 
Q 1141 3584 1784 3584 
Q 2172 3584 2450 3431 
Q 2728 3278 2906 2969 
L 2906 3500 
L 3481 3500 
L 3481 434 
z
" transform="scale(0.015625)"/>
       <path id="DejaVuSans-79" d="M 2059 -325 
Q 1816 -950 1584 -1140 
Q 1353 -1331 966 -1331 
L 506 -1331 
L 506 -850 
L 844 -850 
Q 1081 -850 1212 -737 
Q 1344 -625 1503 -206 
L 1606 56 
L 191 3500 
L 800 3500 
L 1894 763 
L 2988 3500 
L 3597 3500 
L 2059 -325 
z
" transform="scale(0.015625)"/>
       <path id="DejaVuSans-20" transform="scale(0.015625)"/>
       <path id="DejaVuSans-5b" d="M 550 4863 
L 1875 4863 
L 1875 4416 
L 1125 4416 
L 1125 -397 
L 1875 -397 
L 1875 -844 
L 550 -844 
L 550 4863 
z
" transform="scale(0.015625)"/>
       <path id="DejaVuSans-56" d="M 1831 0 
L 50 4666 
L 709 4666 
L 2188 738 
L 3669 4666 
L 4325 4666 
L 2547 0 
L 1831 0 
z
" transform="scale(0.015625)"/>
       <path id="DejaVuSans-5d" d="M 1947 4863 
L 1947 -844 
L 622 -844 
L 622 -397 
L 1369 -397 
L 1369 4416 
L 622 4416 
L 622 4863 
L 1947 4863 
z
" transform="scale(0.015625)"/>
      </defs>
      <use xlink:href="#DejaVuSans-45"/>
      <use xlink:href="#DejaVuSans-6e" x="63.183594"/>
      <use xlink:href="#DejaVuSans-65" x="126.5625"/>
      <use xlink:href="#DejaVuSans-72" x="188.085938"/>
      <use xlink:href="#DejaVuSans-67" x="227.449219"/>
      <use xlink:href="#DejaVuSans-79" x="290.925781"/>
      <use xlink:href="#DejaVuSans-20" x="350.105469"/>
      <use xlink:href="#DejaVuSans-5b" x="381.892578"/>
      <use xlink:href="#DejaVuSans-65" x="420.90625"/>
      <use xlink:href="#DejaVuSans-56" x="482.429688"/>
      <use xlink:href="#DejaVuSans-5d" x="550.837891"/>
     </g>
    </g>
   </g>
   <g id="matplotlib.axis_2">
    <g id="ytick_1">
     <g id="line2d_6">
      <defs>
       <path id="md0601619a7" d="M 0 0 
L -3.5 0 
" style="stroke: #000000; stroke-width: 0.8"/>
      </defs>
      <g>
       <use xlink:href="#md0601619a7" x="72.338786" y="292.12" style="stroke: #000000; stroke-width: 0.8"/>
      </g>
     </g>
     <g id="text_7">
      <!-- $\mathdefault{10^{-5}}$ -->
      <g transform="translate(32.438786 297.438906) scale(0.14 -0.14)">
       <defs>
        <path id="DejaVuSans-2212" d="M 678 2272 
L 4684 2272 
L 4684 1741 
L 678 1741 
L 678 2272 
z
" transform="scale(0.015625)"/>
       </defs>
       <use xlink:href="#DejaVuSans-31" transform="translate(0 0.684375)"/>
       <use xlink:href="#DejaVuSans-30" transform="translate(63.623047 0.684375)"/>
       <use xlink:href="#DejaVuSans-2212" transform="translate(128.203125 38.965625) scale(0.7)"/>
       <use xlink:href="#DejaVuSans-35" transform="translate(186.855469 38.965625) scale(0.7)"/>
      </g>
     </g>
    </g>
    <g id="ytick_2">
     <g id="line2d_7">
      <g>
       <use xlink:href="#md0601619a7" x="72.338786" y="171.739127" style="stroke: #000000; stroke-width: 0.8"/>
      </g>
     </g>
     <g id="text_8">
      <!-- $\mathdefault{10^{-4}}$ -->
      <g transform="translate(32.438786 177.058033) scale(0.14 -0.14)">
       <defs>
        <path id="DejaVuSans-34" d="M 2419 4116 
L 825 1625 
L 2419 1625 
L 2419 4116 
z
M 2253 4666 
L 3047 4666 
L 3047 1625 
L 3713 1625 
L 3713 1100 
L 3047 1100 
L 3047 0 
L 2419 0 
L 2419 1100 
L 313 1100 
L 313 1709 
L 2253 4666 
z
" transform="scale(0.015625)"/>
       </defs>
       <use xlink:href="#DejaVuSans-31" transform="translate(0 0.684375)"/>
       <use xlink:href="#DejaVuSans-30" transform="translate(63.623047 0.684375)"/>
       <use xlink:href="#DejaVuSans-2212" transform="translate(128.203125 38.965625) scale(0.7)"/>
       <use xlink:href="#DejaVuSans-34" transform="translate(186.855469 38.965625) scale(0.7)"/>
      </g>
     </g>
    </g>
    <g id="ytick_3">
     <g id="line2d_8">
      <g>
       <use xlink:href="#md0601619a7" x="72.338786" y="51.358254" style="stroke: #000000; stroke-width: 0.8"/>
      </g>
     </g>
     <g id="text_9">
      <!-- $\mathdefault{10^{-3}}$ -->
      <g transform="translate(32.438786 56.67716) scale(0.14 -0.14)">
       <use xlink:href="#DejaVuSans-31" transform="translate(0 0.765625)"/>
       <use xlink:href="#DejaVuSans-30" transform="translate(63.623047 0.765625)"/>
       <use xlink:href="#DejaVuSans-2212" transform="translate(128.203125 39.046875) scale(0.7)"/>
       <use xlink:href="#DejaVuSans-33" transform="translate(186.855469 39.046875) scale(0.7)"/>
      </g>
     </g>
    </g>
    <g id="ytick_4">
     <g id="line2d_9">
      <defs>
       <path id="m300717b17e" d="M 0 0 
L -2 0 
" style="stroke: #000000; stroke-width: 0.6"/>
      </defs>
      <g>
       <use xlink:href="#m300717b17e" x="72.338786" y="255.881746" style="stroke: #000000; stroke-width: 0.6"/>
      </g>
     </g>
    </g>
    <g id="ytick_5">
     <g id="line2d_10">
      <g>
       <use xlink:href="#m300717b17e" x="72.338786" y="234.683727" style="stroke: #000000; stroke-width: 0.6"/>
      </g>
     </g>
    </g>
    <g id="ytick_6">
     <g id="line2d_11">
      <g>
       <use xlink:href="#m300717b17e" x="72.338786" y="219.643493" style="stroke: #000000; stroke-width: 0.6"/>
      </g>
     </g>
    </g>
    <g id="ytick_7">
     <g id="line2d_12">
      <g>
       <use xlink:href="#m300717b17e" x="72.338786" y="207.977381" style="stroke: #000000; stroke-width: 0.6"/>
      </g>
     </g>
    </g>
    <g id="ytick_8">
     <g id="line2d_13">
      <g>
       <use xlink:href="#m300717b17e" x="72.338786" y="198.445473" style="stroke: #000000; stroke-width: 0.6"/>
      </g>
     </g>
    </g>
    <g id="ytick_9">
     <g id="line2d_14">
      <g>
       <use xlink:href="#m300717b17e" x="72.338786" y="190.38636" style="stroke: #000000; stroke-width: 0.6"/>
      </g>
     </g>
    </g>
    <g id="ytick_10">
     <g id="line2d_15">
      <g>
       <use xlink:href="#m300717b17e" x="72.338786" y="183.405239" style="stroke: #000000; stroke-width: 0.6"/>
      </g>
     </g>
    </g>
    <g id="ytick_11">
     <g id="line2d_16">
      <g>
       <use xlink:href="#m300717b17e" x="72.338786" y="177.247454" style="stroke: #000000; stroke-width: 0.6"/>
      </g>
     </g>
    </g>
    <g id="ytick_12">
     <g id="line2d_17">
      <g>
       <use xlink:href="#m300717b17e" x="72.338786" y="135.500873" style="stroke: #000000; stroke-width: 0.6"/>
      </g>
     </g>
    </g>
    <g id="ytick_13">
     <g id="line2d_18">
      <g>
       <use xlink:href="#m300717b17e" x="72.338786" y="114.302854" style="stroke: #000000; stroke-width: 0.6"/>
      </g>
     </g>
    </g>
    <g id="ytick_14">
     <g id="line2d_19">
      <g>
       <use xlink:href="#m300717b17e" x="72.338786" y="99.262619" style="stroke: #000000; stroke-width: 0.6"/>
      </g>
     </g>
    </g>
    <g id="ytick_15">
     <g id="line2d_20">
      <g>
       <use xlink:href="#m300717b17e" x="72.338786" y="87.596507" style="stroke: #000000; stroke-width: 0.6"/>
      </g>
     </g>
    </g>
    <g id="ytick_16">
     <g id="line2d_21">
      <g>
       <use xlink:href="#m300717b17e" x="72.338786" y="78.0646" style="stroke: #000000; stroke-width: 0.6"/>
      </g>
     </g>
    </g>
    <g id="ytick_17">
     <g id="line2d_22">
      <g>
       <use xlink:href="#m300717b17e" x="72.338786" y="70.005487" style="stroke: #000000; stroke-width: 0.6"/>
      </g>
     </g>
    </g>
    <g id="ytick_18">
     <g id="line2d_23">
      <g>
       <use xlink:href="#m300717b17e" x="72.338786" y="63.024366" style="stroke: #000000; stroke-width: 0.6"/>
      </g>
     </g>
    </g>
    <g id="ytick_19">
     <g id="line2d_24">
      <g>
       <use xlink:href="#m300717b17e" x="72.338786" y="56.86658" style="stroke: #000000; stroke-width: 0.6"/>
      </g>
     </g>
    </g>
    <g id="ytick_20">
     <g id="line2d_25">
      <g>
       <use xlink:href="#m300717b17e" x="72.338786" y="15.12" style="stroke: #000000; stroke-width: 0.6"/>
      </g>
     </g>
    </g>
    <g id="text_10">
     <!-- Flux [Arb. Units] -->
     <g transform="translate(25.527224 210.31125) rotate(-90) scale(0.14 -0.14)">
      <defs>
       <path id="DejaVuSans-46" d="M 628 4666 
L 3309 4666 
L 3309 4134 
L 1259 4134 
L 1259 2759 
L 3109 2759 
L 3109 2228 
L 1259 2228 
L 1259 0 
L 628 0 
L 628 4666 
z
" transform="scale(0.015625)"/>
       <path id="DejaVuSans-6c" d="M 603 4863 
L 1178 4863 
L 1178 0 
L 603 0 
L 603 4863 
z
" transform="scale(0.015625)"/>
       <path id="DejaVuSans-75" d="M 544 1381 
L 544 3500 
L 1119 3500 
L 1119 1403 
Q 1119 906 1312 657 
Q 1506 409 1894 409 
Q 2359 409 2629 706 
Q 2900 1003 2900 1516 
L 2900 3500 
L 3475 3500 
L 3475 0 
L 2900 0 
L 2900 538 
Q 2691 219 2414 64 
Q 2138 -91 1772 -91 
Q 1169 -91 856 284 
Q 544 659 544 1381 
z
M 1991 3584 
L 1991 3584 
z
" transform="scale(0.015625)"/>
       <path id="DejaVuSans-78" d="M 3513 3500 
L 2247 1797 
L 3578 0 
L 2900 0 
L 1881 1375 
L 863 0 
L 184 0 
L 1544 1831 
L 300 3500 
L 978 3500 
L 1906 2253 
L 2834 3500 
L 3513 3500 
z
" transform="scale(0.015625)"/>
       <path id="DejaVuSans-41" d="M 2188 4044 
L 1331 1722 
L 3047 1722 
L 2188 4044 
z
M 1831 4666 
L 2547 4666 
L 4325 0 
L 3669 0 
L 3244 1197 
L 1141 1197 
L 716 0 
L 50 0 
L 1831 4666 
z
" transform="scale(0.015625)"/>
       <path id="DejaVuSans-62" d="M 3116 1747 
Q 3116 2381 2855 2742 
Q 2594 3103 2138 3103 
Q 1681 3103 1420 2742 
Q 1159 2381 1159 1747 
Q 1159 1113 1420 752 
Q 1681 391 2138 391 
Q 2594 391 2855 752 
Q 3116 1113 3116 1747 
z
M 1159 2969 
Q 1341 3281 1617 3432 
Q 1894 3584 2278 3584 
Q 2916 3584 3314 3078 
Q 3713 2572 3713 1747 
Q 3713 922 3314 415 
Q 2916 -91 2278 -91 
Q 1894 -91 1617 61 
Q 1341 213 1159 525 
L 1159 0 
L 581 0 
L 581 4863 
L 1159 4863 
L 1159 2969 
z
" transform="scale(0.015625)"/>
       <path id="DejaVuSans-2e" d="M 684 794 
L 1344 794 
L 1344 0 
L 684 0 
L 684 794 
z
" transform="scale(0.015625)"/>
       <path id="DejaVuSans-55" d="M 556 4666 
L 1191 4666 
L 1191 1831 
Q 1191 1081 1462 751 
Q 1734 422 2344 422 
Q 2950 422 3222 751 
Q 3494 1081 3494 1831 
L 3494 4666 
L 4128 4666 
L 4128 1753 
Q 4128 841 3676 375 
Q 3225 -91 2344 -91 
Q 1459 -91 1007 375 
Q 556 841 556 1753 
L 556 4666 
z
" transform="scale(0.015625)"/>
       <path id="DejaVuSans-69" d="M 603 3500 
L 1178 3500 
L 1178 0 
L 603 0 
L 603 3500 
z
M 603 4863 
L 1178 4863 
L 1178 4134 
L 603 4134 
L 603 4863 
z
" transform="scale(0.015625)"/>
       <path id="DejaVuSans-74" d="M 1172 4494 
L 1172 3500 
L 2356 3500 
L 2356 3053 
L 1172 3053 
L 1172 1153 
Q 1172 725 1289 603 
Q 1406 481 1766 481 
L 2356 481 
L 2356 0 
L 1766 0 
Q 1100 0 847 248 
Q 594 497 594 1153 
L 594 3053 
L 172 3053 
L 172 3500 
L 594 3500 
L 594 4494 
L 1172 4494 
z
" transform="scale(0.015625)"/>
       <path id="DejaVuSans-73" d="M 2834 3397 
L 2834 2853 
Q 2591 2978 2328 3040 
Q 2066 3103 1784 3103 
Q 1356 3103 1142 2972 
Q 928 2841 928 2578 
Q 928 2378 1081 2264 
Q 1234 2150 1697 2047 
L 1894 2003 
Q 2506 1872 2764 1633 
Q 3022 1394 3022 966 
Q 3022 478 2636 193 
Q 2250 -91 1575 -91 
Q 1294 -91 989 -36 
Q 684 19 347 128 
L 347 722 
Q 666 556 975 473 
Q 1284 391 1588 391 
Q 1994 391 2212 530 
Q 2431 669 2431 922 
Q 2431 1156 2273 1281 
Q 2116 1406 1581 1522 
L 1381 1569 
Q 847 1681 609 1914 
Q 372 2147 372 2553 
Q 372 3047 722 3315 
Q 1072 3584 1716 3584 
Q 2034 3584 2315 3537 
Q 2597 3491 2834 3397 
z
" transform="scale(0.015625)"/>
      </defs>
      <use xlink:href="#DejaVuSans-46"/>
      <use xlink:href="#DejaVuSans-6c" x="57.519531"/>
      <use xlink:href="#DejaVuSans-75" x="85.302734"/>
      <use xlink:href="#DejaVuSans-78" x="148.681641"/>
      <use xlink:href="#DejaVuSans-20" x="207.861328"/>
      <use xlink:href="#DejaVuSans-5b" x="239.648438"/>
      <use xlink:href="#DejaVuSans-41" x="278.662109"/>
      <use xlink:href="#DejaVuSans-72" x="347.070312"/>
      <use xlink:href="#DejaVuSans-62" x="388.183594"/>
      <use xlink:href="#DejaVuSans-2e" x="451.660156"/>
      <use xlink:href="#DejaVuSans-20" x="483.447266"/>
      <use xlink:href="#DejaVuSans-55" x="515.234375"/>
      <use xlink:href="#DejaVuSans-6e" x="588.427734"/>
      <use xlink:href="#DejaVuSans-69" x="651.806641"/>
      <use xlink:href="#DejaVuSans-74" x="679.589844"/>
      <use xlink:href="#DejaVuSans-73" x="718.798828"/>
      <use xlink:href="#DejaVuSans-5d" x="770.898438"/>
     </g>
    </g>
   </g>
   <g id="line2d_26">
    <path d="M 72.298341 55.927283 
L 72.663904 56.053332 
L 72.925243 56.326349 
L 73.230138 57.033278 
L 73.535034 58.371633 
L 73.969043 61.394499 
L 74.572611 65.413338 
L 74.823061 65.889012 
L 74.931952 65.783365 
L 75.109289 65.217627 
L 75.404851 63.405184 
L 76.307092 57.191303 
L 76.695989 56.066626 
L 77.083331 55.636965 
L 77.618453 55.465753 
L 79.240932 55.305123 
L 88.375347 54.577397 
L 89.332034 54.660729 
L 89.811155 54.509548 
L 91.130294 54.001623 
L 92.981444 53.689824 
L 93.362563 53.797627 
L 93.634791 54.112691 
L 93.907019 54.824242 
L 94.204137 56.277107 
L 94.639701 59.740603 
L 95.286826 64.730201 
L 95.515498 65.208031 
L 95.6135 65.113179 
L 95.792392 64.482169 
L 96.077065 62.452341 
L 97.123976 53.66364 
L 97.528429 52.273913 
L 98.010662 51.487819 
L 98.444671 51.147991 
L 98.637564 51.190616 
L 98.830457 51.51653 
L 99.046683 52.500579 
L 99.270688 54.686808 
L 99.547583 59.905162 
L 99.913146 72.056584 
L 101.210507 121.414585 
L 101.443845 123.002629 
L 101.501402 122.895311 
L 101.611849 122.138942 
L 101.843631 118.281455 
L 102.132971 109.662422 
L 103.42722 64.474938 
L 103.778783 60.45369 
L 104.16768 58.485449 
L 104.558133 57.531885 
L 105.041921 56.868992 
L 105.396595 56.677885 
L 105.633045 56.790924 
L 105.874161 57.239342 
L 106.154167 58.360008 
L 106.513508 60.867157 
L 107.355081 67.209898 
L 107.543307 67.463407 
L 107.557307 67.455434 
L 107.663087 67.274046 
L 107.854425 66.426285 
L 108.185765 63.719066 
L 109.046006 56.120608 
L 109.434903 54.542488 
L 109.845578 53.798696 
L 110.371367 53.354707 
L 112.283185 52.021142 
L 113.199427 51.117457 
L 114.058111 49.913377 
L 114.971242 48.474955 
L 115.078577 48.539045 
L 115.238803 49.002865 
L 115.453474 50.813792 
L 115.668145 54.876217 
L 115.963707 65.690062 
L 116.400827 91.503535 
L 117.082175 130.587101 
L 117.447738 141.179509 
L 117.653076 143.017857 
L 117.682632 143.035373 
L 117.719966 142.969345 
L 117.863081 141.816985 
L 118.062196 137.93224 
L 118.423092 125.003915 
L 119.737565 69.973827 
L 120.079794 65.56713 
L 120.437579 63.640833 
L 120.795365 62.887379 
L 121.593382 61.707391 
L 122.265396 59.93207 
L 122.946743 58.431391 
L 123.491199 57.771587 
L 124.142991 57.290814 
L 125.169679 56.81996 
L 127.090831 56.246903 
L 128.243522 55.599631 
L 129.393102 55.235234 
L 130.810243 54.944723 
L 131.189806 55.058809 
L 131.494702 55.371827 
L 131.87271 56.165228 
L 132.883842 58.817678 
L 133.098513 58.790091 
L 133.306962 58.451301 
L 133.703637 57.195021 
L 134.447208 54.792501 
L 134.895218 54.107502 
L 135.343227 53.813817 
L 136.237691 53.546994 
L 144.032744 51.505888 
L 146.101677 50.592738 
L 149.489748 49.258999 
L 149.747976 49.478444 
L 149.964203 49.973881 
L 150.223986 51.20004 
L 150.544437 54.056439 
L 150.972224 60.163507 
L 151.603793 68.840563 
L 151.876021 70.021077 
L 151.969356 69.914355 
L 152.148249 68.975435 
L 152.425143 65.838961 
L 153.750505 47.610461 
L 154.120735 46.06991 
L 154.490965 45.298739 
L 155.368317 44.144212 
L 156.653233 42.33091 
L 157.997261 39.941258 
L 159.165508 37.349633 
L 160.030415 34.755879 
L 161.475557 29.272702 
L 162.124237 27.070168 
L 162.401132 26.699088 
L 162.550468 26.857355 
L 162.699805 27.441457 
L 162.897364 29.250279 
L 163.144703 34.282656 
L 163.415375 45.473515 
L 163.748271 69.726705 
L 164.522954 149.481895 
L 165.096966 198.071038 
L 165.535642 220.874077 
L 165.88565 229.27171 
L 166.048987 230.205816 
L 166.089432 230.148057 
L 166.181212 229.597338 
L 166.392772 226.159995 
L 166.636999 218.629029 
L 167.106787 195.084148 
L 168.492816 117.202059 
L 168.993715 104.627661 
L 169.544394 96.386311 
L 170.129295 90.514696 
L 170.85731 85.320233 
L 171.603993 81.421966 
L 172.406676 78.241348 
L 173.410031 75.226033 
L 174.212714 73.39538 
L 175.306293 71.549966 
L 177.496562 68.211031 
L 178.678809 67.064578 
L 181.898877 64.370038 
L 183.401575 63.521389 
L 183.840251 63.498543 
L 184.170036 63.679755 
L 184.719158 64.351636 
L 185.216947 64.845329 
L 185.484508 64.799077 
L 185.708513 64.547499 
L 186.074076 63.821765 
L 186.803647 62.407255 
L 187.052541 62.271402 
L 187.267212 62.372388 
L 187.554996 62.84871 
L 187.912781 63.904951 
L 188.545906 65.773378 
L 188.791689 65.935257 
L 188.937914 65.803352 
L 189.15103 65.318892 
L 189.502593 63.974712 
L 190.26172 61.032487 
L 190.715952 60.143669 
L 191.171739 59.714298 
L 192.086425 59.24034 
L 193.111558 58.903821 
L 193.505122 59.00906 
L 193.900241 59.417028 
L 194.959597 60.851938 
L 195.183602 60.718037 
L 195.507164 60.131404 
L 196.855859 57.010653 
L 197.394093 56.487963 
L 199.850367 54.587486 
L 201.006169 53.419557 
L 202.031302 52.113692 
L 203.148214 50.229152 
L 203.949342 48.400269 
L 204.815805 45.689986 
L 205.736713 42.507719 
L 205.842493 42.543745 
L 205.946718 42.878246 
L 206.130277 44.606145 
L 206.340281 49.402813 
L 206.615621 62.282781 
L 207.029407 94.918194 
L 207.914537 165.739044 
L 208.301878 182.365186 
L 208.609885 187.735213 
L 208.67522 187.977562 
L 208.732776 187.934275 
L 208.852557 187.082711 
L 209.089006 182.474966 
L 209.348789 173.254018 
L 209.910357 142.158121 
L 210.719263 96.90792 
L 211.106604 85.435618 
L 211.521946 78.977112 
L 211.937288 75.339381 
L 212.529968 72.047826 
L 213.177092 69.6348 
L 214.105779 67.217631 
L 215.928928 63.151944 
L 219.562783 56.462789 
L 219.800788 56.44661 
L 219.943902 56.645738 
L 220.203685 57.552928 
L 220.525692 59.816887 
L 220.913033 64.108713 
L 221.373488 71.799972 
L 221.717273 82.158934 
L 222.104614 102.183005 
L 223.201304 164.613883 
L 223.482866 170.766649 
L 223.666425 171.808884 
L 223.775316 171.32338 
L 223.940208 169.062261 
L 224.201547 161.929037 
L 224.657335 141.00089 
L 225.682467 90.168527 
L 226.066698 81.468411 
L 226.489818 76.713111 
L 226.992273 73.762386 
L 227.664287 71.367769 
L 228.255411 69.888815 
L 229.051872 68.393673 
L 230.053671 66.98939 
L 231.192362 65.768653 
L 232.78684 64.438241 
L 234.063978 63.633792 
L 235.669345 62.820778 
L 237.769389 61.308308 
L 241.456134 59.005052 
L 243.808183 56.55162 
L 244.669979 55.382799 
L 245.71689 53.521054 
L 246.462017 51.726526 
L 247.235145 49.205785 
L 248.096941 46.297771 
L 248.205832 46.387151 
L 248.367613 47.210352 
L 248.58384 50.459177 
L 248.818734 58.358222 
L 249.136074 77.879319 
L 250.550103 179.564468 
L 250.900111 187.441439 
L 251.019891 188.12518 
L 251.068114 188.114449 
L 251.219007 187.03799 
L 251.436789 182.788539 
L 251.780574 170.192364 
L 252.381031 136.447817 
L 253.05149 101.277347 
L 253.479276 89.161196 
L 253.838617 83.777819 
L 254.305294 79.828835 
L 254.913529 76.714778 
L 255.597988 74.367718 
L 256.455117 72.310736 
L 257.141132 71.084841 
L 258.07604 69.790301 
L 259.255176 68.585437 
L 259.868078 68.251681 
L 260.275642 68.317605 
L 260.633427 68.630261 
L 261.439222 69.453636 
L 261.700561 69.378849 
L 261.951011 69.062877 
L 262.355464 68.183305 
L 263.175259 66.422657 
L 263.674603 65.869911 
L 264.421285 65.439903 
L 266.653555 64.55652 
L 271.450989 62.704461 
L 272.726572 61.937193 
L 273.649036 61.339231 
L 273.862151 61.475231 
L 274.075267 62.016982 
L 274.286827 63.257012 
L 274.535721 66.0918 
L 274.868617 72.858746 
L 275.593521 94.527855 
L 276.011974 103.316185 
L 276.268646 105.21052 
L 276.324648 105.230911 
L 276.439761 104.833975 
L 276.64821 102.686073 
L 276.915771 97.631143 
L 278.18202 69.729347 
L 278.549139 66.926031 
L 278.948925 65.56781 
L 279.415602 64.849542 
L 280.082949 64.291867 
L 280.882522 63.887577 
L 281.719428 63.712287 
L 282.609225 63.529029 
L 285.328393 62.479062 
L 287.499995 62.100757 
L 287.993116 62.246305 
L 288.344679 62.586352 
L 288.7958 63.371819 
L 289.447591 64.531481 
L 289.736931 64.639581 
L 289.946935 64.483185 
L 290.303165 63.841247 
L 291.253629 61.826255 
L 291.754529 61.360757 
L 292.364319 61.134757 
L 294.803482 60.661196 
L 300.887388 59.396365 
L 303.992343 58.763503 
L 304.309683 58.885049 
L 304.689246 59.260264 
L 305.353482 60.426878 
L 305.781269 60.960449 
L 306.039497 60.954181 
L 306.29928 60.658366 
L 306.734845 59.701017 
L 307.444193 58.123008 
L 307.94976 57.523188 
L 308.515994 57.216205 
L 308.998226 57.164976 
L 309.359123 57.338892 
L 309.721575 57.797451 
L 310.852487 59.674231 
L 311.060936 59.571073 
L 311.311386 59.15671 
L 311.658282 58.206058 
L 312.524745 55.847102 
L 313.042756 55.127293 
L 313.691436 54.606028 
L 315.637477 53.178645 
L 317.193066 51.754075 
L 318.577539 50.169554 
L 319.902901 48.257618 
L 320.854921 46.556759 
L 321.805385 44.491323 
L 322.844518 41.683206 
L 323.983209 37.852337 
L 325.279014 33.513586 
L 325.627466 32.841409 
L 325.783025 32.798616 
L 325.924583 33.019226 
L 326.094142 33.800444 
L 326.288591 35.806716 
L 326.521929 40.76163 
L 326.808158 52.669335 
L 327.175276 79.321028 
L 328.847534 218.745192 
L 329.237987 231.070652 
L 329.494659 233.826883 
L 329.545993 233.875777 
L 329.662662 233.375413 
L 329.813554 231.493994 
L 330.104449 224.134544 
L 330.550903 204.57288 
L 332.178049 122.242585 
L 332.694504 111.107545 
L 333.257627 103.526228 
L 334.007421 96.795657 
L 334.721436 92.265072 
L 335.545898 88.372942 
L 336.371915 85.405747 
L 337.197932 83.160078 
L 337.723721 82.254714 
L 338.059728 82.011008 
L 338.398847 82.031168 
L 339.083306 82.19714 
L 339.388201 81.909962 
L 339.733542 81.161193 
L 340.438223 78.827773 
L 341.11646 76.881406 
L 341.748028 75.75547 
L 342.43871 74.948809 
L 343.302061 74.152202 
L 345.162545 72.724043 
L 347.499039 71.27538 
L 350.899555 69.549996 
L 352.35403 68.997154 
L 354.03251 68.648483 
L 355.046754 67.755438 
L 356.022108 67.058554 
L 357.742588 65.920345 
L 358.927947 64.859597 
L 359.923523 63.570968 
L 360.915989 62.045388 
L 361.097992 62.154373 
L 361.256662 62.654364 
L 361.466667 64.302733 
L 361.729561 68.854469 
L 362.026679 78.415084 
L 362.550912 104.159599 
L 363.132702 130.586447 
L 363.520044 139.65938 
L 363.742493 140.989291 
L 363.840495 140.665811 
L 364.005387 138.906335 
L 364.300949 132.248831 
L 364.842294 111.878175 
L 365.567198 85.426414 
L 365.962317 77.899953 
L 366.358992 74.212331 
L 366.735445 72.423664 
L 367.253456 70.945234 
L 367.969026 69.485193 
L 370.26663 65.502765 
L 370.414411 65.649577 
L 370.562192 66.147263 
L 370.759752 67.667429 
L 370.996201 71.394565 
L 371.308875 80.47928 
L 371.868886 105.797197 
L 372.478677 130.083858 
L 372.824018 136.403611 
L 372.998244 137.101264 
L 373.102468 136.717921 
L 373.289139 134.589651 
L 373.530255 129.340291 
L 374.034266 111.973945 
L 374.788726 86.48834 
L 375.207179 79.355006 
L 375.592965 76.285121 
L 375.995862 74.828014 
L 376.358315 74.283976 
L 376.599431 74.222955 
L 376.838991 74.383872 
L 377.128331 74.823593 
L 377.823679 75.98962 
L 378.071017 76.006196 
L 378.26391 75.781584 
L 378.533027 75.147818 
L 379.695052 71.902626 
L 380.003058 71.768213 
L 380.287731 71.908331 
L 381.014191 72.411667 
L 381.298863 72.311624 
L 381.599092 71.956764 
L 382.975788 69.875933 
L 383.478243 69.645678 
L 384.578044 69.521282 
L 385.307615 69.334233 
L 386.897426 68.869505 
L 389.599483 68.476784 
L 390.982401 68.400048 
L 391.539302 68.598362 
L 392.063535 69.030509 
L 392.747994 69.551911 
L 393.093334 69.531388 
L 393.50401 69.211561 
L 394.619367 68.124986 
L 395.233824 67.912627 
L 396.484517 67.786369 
L 397.32609 67.863957 
L 398.111663 68.208065 
L 398.72612 68.394378 
L 399.11035 68.312604 
L 399.821254 67.87839 
L 400.552381 67.527457 
L 401.4624 67.374282 
L 409.487681 66.715947 
L 410.346365 66.956526 
L 410.621704 67.258071 
L 410.861265 67.8386 
L 411.16616 69.326103 
L 411.500612 72.251162 
L 412.773083 85.193328 
L 412.900641 85.181894 
L 413.060867 84.66689 
L 413.334651 82.663128 
L 414.764236 69.427937 
L 415.184245 68.33883 
L 415.602698 67.893803 
L 416.105154 67.656431 
L 417.111619 67.419092 
L 419.455891 67.137968 
L 423.477087 66.883331 
L 434.089311 66.507823 
L 438.418513 66.494522 
L 438.833855 66.719279 
L 439.138751 67.213721 
L 439.431201 68.25407 
L 439.723652 70.190778 
L 440.114105 74.516185 
L 441.199905 87.88039 
L 441.378798 88.24384 
L 441.403688 88.229672 
L 441.500134 88.025423 
L 441.680582 87.027791 
L 441.9777 83.895156 
L 443.170836 68.959589 
L 443.52551 67.320415 
L 443.877073 66.634663 
L 444.231747 66.386262 
L 444.866427 66.274755 
L 445.729779 66.233686 
L 445.729779 66.233686 
" clip-path="url(#pef661e320f)" style="fill: none; stroke: #1f77b4; stroke-width: 1.5; stroke-linecap: square"/>
   </g>
   <g id="line2d_27">
    <path d="M 72.298341 55.558051 
L 72.576791 55.772457 
L 72.83813 56.247276 
L 73.143026 57.464217 
L 73.447921 59.813771 
L 73.883486 65.329891 
L 74.572611 73.945207 
L 74.823061 74.808658 
L 74.914841 74.688066 
L 75.065733 73.987463 
L 75.320849 71.561077 
L 76.540431 57.354419 
L 76.851548 56.260796 
L 77.16111 55.822566 
L 77.546896 55.660031 
L 78.394692 55.630092 
L 86.628421 55.879339 
L 87.770223 56.029636 
L 88.375347 56.340751 
L 89.201364 56.797788 
L 89.532705 56.777477 
L 90.08805 56.490071 
L 90.803621 56.152486 
L 91.565859 56.081209 
L 92.872553 56.216386 
L 93.253672 56.486168 
L 93.5259 57.013606 
L 93.798128 58.131242 
L 94.10769 60.549179 
L 94.543255 66.314007 
L 95.286826 76.325651 
L 95.531054 77.199495 
L 95.6135 77.098785 
L 95.792392 76.204628 
L 96.077065 73.145074 
L 97.193978 58.806691 
L 97.528429 57.384377 
L 97.817769 56.932969 
L 98.107108 56.893844 
L 98.300001 57.058666 
L 98.541117 57.578202 
L 98.782233 58.72898 
L 99.046683 61.344019 
L 99.325134 66.611422 
L 99.687586 78.54695 
L 101.157617 134.644644 
L 101.317842 135.469143 
L 101.347399 135.449836 
L 101.443845 135.011999 
L 101.611849 132.882794 
L 101.908966 125.035633 
L 102.346086 105.830991 
L 103.204771 67.370243 
L 103.559445 60.600701 
L 103.844118 58.312068 
L 104.16768 57.32324 
L 104.427464 57.038008 
L 104.805472 56.918256 
L 105.160146 57.032704 
L 105.396595 57.335444 
L 105.633045 57.998451 
L 105.914606 59.577478 
L 106.233502 62.827909 
L 106.753068 71.024927 
L 107.289746 78.232531 
L 107.544863 79.226036 
L 107.625753 79.119967 
L 107.795313 78.24761 
L 108.030206 75.747785 
L 109.357123 58.435587 
L 109.728909 57.257812 
L 110.021359 56.936116 
L 110.508259 56.809318 
L 111.737173 56.855312 
L 113.414098 57.082585 
L 114.272783 57.392558 
L 114.594789 57.673126 
L 114.916796 58.329326 
L 115.131467 59.297155 
L 115.400584 61.832764 
L 115.696146 67.709354 
L 116.019708 79.471459 
L 116.663722 113.88437 
L 117.149065 134.62812 
L 117.489739 141.015174 
L 117.595519 141.39363 
L 117.621964 141.36671 
L 117.719966 140.843548 
L 117.90197 138.125693 
L 118.135309 131.485283 
L 118.545984 112.767035 
L 119.456003 68.99331 
L 119.8169 62.09465 
L 120.079794 60.305824 
L 120.285132 59.983159 
L 120.437579 60.096455 
L 120.694251 60.631624 
L 121.24493 61.727392 
L 121.465823 61.736264 
L 121.64316 61.506477 
L 121.979167 60.604058 
L 122.837852 57.990825 
L 123.273417 57.422514 
L 123.707426 57.227753 
L 124.360773 57.183362 
L 125.169679 57.350554 
L 126.73149 57.976186 
L 127.268168 57.686864 
L 128.066185 57.299117 
L 128.862646 57.221348 
L 130.583127 57.33672 
L 130.961135 57.560038 
L 131.26603 58.019217 
L 131.56937 58.920731 
L 131.948933 60.840746 
L 132.840286 65.76836 
L 133.045623 65.939337 
L 133.177848 65.752422 
L 133.373852 65.081502 
L 133.703637 63.199944 
L 134.447208 58.96716 
L 134.839217 57.937211 
L 135.175224 57.578329 
L 135.567232 57.446882 
L 136.6857 57.433506 
L 142.111592 57.687244 
L 143.802517 57.999131 
L 145.708113 57.74978 
L 148.88618 57.956367 
L 149.317078 58.154973 
L 149.575305 58.509862 
L 149.835089 59.31824 
L 150.093316 60.957303 
L 150.395101 64.517546 
L 150.811998 72.74195 
L 151.603793 89.139623 
L 151.876021 90.900854 
L 151.947578 90.871225 
L 152.054913 90.437631 
L 152.250918 88.494939 
L 152.54959 83.156094 
L 153.486055 63.551811 
L 153.856285 60.110658 
L 154.173625 58.886403 
L 154.490965 58.447633 
L 154.886084 58.310386 
L 156.010775 58.347335 
L 157.763923 58.587011 
L 158.698831 58.920481 
L 159.733298 59.284554 
L 160.770875 59.558385 
L 161.290442 59.882546 
L 161.939122 60.573814 
L 162.450911 61.500367 
L 162.847586 62.722349 
L 163.192926 64.609074 
L 163.504044 67.718664 
L 163.818273 73.405647 
L 164.180725 84.745313 
L 164.726736 110.526871 
L 165.400306 140.211395 
L 165.739424 147.82177 
L 165.957207 149.237868 
L 165.969652 149.233568 
L 166.048987 148.988906 
L 166.181212 147.751863 
L 166.440995 142.403766 
L 166.736557 132.108571 
L 168.270367 70.001952 
L 168.643708 65.383705 
L 169.043494 62.998755 
L 169.444836 61.746611 
L 169.945735 60.844749 
L 170.493303 60.245204 
L 171.221318 59.756454 
L 172.206005 59.376608 
L 173.410031 59.149194 
L 174.012044 59.187975 
L 174.612501 59.447299 
L 175.379406 59.807932 
L 175.774525 59.748294 
L 176.320537 59.406101 
L 177.01744 59.017704 
L 177.496562 58.938322 
L 178.215243 59.041611 
L 179.251265 59.224658 
L 179.89839 59.089363 
L 180.971746 58.885559 
L 182.679782 58.903029 
L 183.291128 59.042517 
L 183.620913 59.306993 
L 183.949142 59.866219 
L 184.389374 61.247601 
L 185.216947 64.233685 
L 185.461174 64.428313 
L 185.619844 64.286909 
L 185.882739 63.642932 
L 186.856537 60.604664 
L 187.052541 60.619255 
L 187.267212 61.054897 
L 187.554996 62.354851 
L 188.055896 66.036778 
L 188.591018 69.354965 
L 188.822801 69.709209 
L 188.937914 69.573805 
L 189.15103 68.803708 
L 189.502593 66.445069 
L 190.26172 61.128883 
L 190.641283 59.848756 
L 191.019291 59.329435 
L 191.475079 59.158626 
L 192.402209 59.168577 
L 192.954443 59.342871 
L 193.268672 59.650707 
L 193.584457 60.272088 
L 193.979576 61.624601 
L 194.898929 65.102018 
L 195.107378 65.198036 
L 195.239603 65.053524 
L 195.507164 64.331422 
L 196.750079 59.90198 
L 197.177866 59.482945 
L 197.683432 59.367741 
L 199.271688 59.426582 
L 202.477755 59.746403 
L 203.949342 60.107173 
L 204.815805 60.560519 
L 205.322927 61.093923 
L 205.683823 61.875526 
L 205.946718 63.023387 
L 206.236057 65.578453 
L 206.523841 70.668247 
L 206.850514 81.164103 
L 207.352969 106.427528 
L 208.060762 140.438897 
L 208.374991 148.096818 
L 208.603663 149.791127 
L 208.609885 149.78994 
L 208.67522 149.625642 
L 208.852557 147.791491 
L 209.089006 142.291603 
L 209.467014 127.154134 
L 210.686595 70.74466 
L 211.042825 64.937731 
L 211.403722 62.506961 
L 211.700839 61.643919 
L 212.055513 61.136393 
L 212.529968 60.834763 
L 213.004422 60.804189 
L 213.695103 61.081595 
L 214.270671 61.18547 
L 214.614456 61.049085 
L 215.928928 60.267282 
L 216.604054 60.202529 
L 218.041417 60.328165 
L 218.774099 60.531972 
L 219.169219 60.872668 
L 219.405668 61.33893 
L 219.642118 62.210659 
L 219.943902 64.306349 
L 220.267464 68.267207 
L 220.78392 77.98279 
L 222.199505 109.994017 
L 223.364641 148.198215 
L 223.552867 149.246836 
L 223.57309 149.229042 
L 223.666425 148.813712 
L 223.83754 146.629245 
L 224.134657 138.611873 
L 224.542221 120.30982 
L 225.526909 73.053232 
L 225.897139 65.649148 
L 226.237813 62.829931 
L 226.553597 61.769439 
L 226.86627 61.291003 
L 227.36717 60.923557 
L 228.255411 60.62801 
L 229.552771 60.451693 
L 232.467944 60.366687 
L 233.790194 60.480857 
L 234.473097 60.767011 
L 235.275781 61.06711 
L 235.669345 61.011057 
L 237.165821 60.491208 
L 238.548739 60.501521 
L 239.522537 60.655481 
L 241.026791 61.051645 
L 243.220171 60.760622 
L 245.315549 61.043291 
L 246.462017 61.383779 
L 247.235145 61.844774 
L 247.666043 62.342962 
L 247.989605 63.061739 
L 248.260277 64.239244 
L 248.529394 66.542724 
L 248.818734 71.388596 
L 249.136074 81.038275 
L 249.576305 102.062259 
L 250.394545 141.669264 
L 250.730552 149.574112 
L 250.945223 151.009222 
L 250.954556 151.005454 
L 251.019891 150.824351 
L 251.177006 149.286472 
L 251.436789 143.436073 
L 251.867687 125.88166 
L 253.007933 72.950749 
L 253.393719 66.271854 
L 253.745282 63.778338 
L 254.118623 62.692124 
L 254.571299 62.111391 
L 255.255758 61.691755 
L 256.112888 61.430443 
L 257.609364 61.23215 
L 259.255176 61.234951 
L 259.622295 61.410982 
L 259.989414 61.878701 
L 260.347199 62.796907 
L 260.848099 64.829427 
L 261.362998 66.735737 
L 261.64456 67.070224 
L 261.784563 66.980911 
L 262.003901 66.517246 
L 262.355464 65.185778 
L 263.100591 62.319651 
L 263.461487 61.625974 
L 263.887718 61.28831 
L 264.527065 61.183983 
L 267.562018 61.232905 
L 272.515012 61.456419 
L 273.260138 61.670048 
L 273.524588 61.957591 
L 273.79215 62.653243 
L 274.075267 64.349301 
L 274.358384 67.849031 
L 274.677279 74.903234 
L 275.18129 91.891952 
L 275.791081 110.735383 
L 276.120865 115.014913 
L 276.215756 115.227403 
L 276.251535 115.185587 
L 276.324648 114.89292 
L 276.531541 112.589872 
L 276.848881 105.246255 
L 278.281578 65.076344 
L 278.614474 62.84404 
L 278.948925 62.026066 
L 279.281821 61.764637 
L 279.815388 61.661611 
L 280.748741 61.703297 
L 281.476756 61.984925 
L 282.397665 62.401388 
L 282.743005 62.364212 
L 283.427464 62.025525 
L 284.188147 61.742683 
L 285.138611 61.690739 
L 287.288435 61.819524 
L 287.711555 62.053718 
L 288.063118 62.550692 
L 288.458237 63.654269 
L 289.69493 67.931208 
L 289.844266 67.862087 
L 290.049604 67.45844 
L 290.430723 66.02127 
L 291.166516 63.108537 
L 291.588081 62.296466 
L 292.031424 61.982073 
L 292.697215 61.899622 
L 296.324847 61.987132 
L 303.612779 62.302492 
L 303.992343 62.523831 
L 304.309683 62.944356 
L 304.689246 63.892359 
L 305.964829 67.889916 
L 306.097054 67.831334 
L 306.29928 67.480268 
L 306.633732 66.373272 
L 307.444193 63.458621 
L 307.848646 62.769737 
L 308.273322 62.51914 
L 308.696442 62.565389 
L 308.998226 62.790351 
L 309.359123 63.404576 
L 309.721575 64.549947 
L 310.852487 68.857644 
L 311.029825 68.873912 
L 311.205606 68.608538 
L 311.513613 67.585558 
L 312.524745 63.549738 
L 312.957199 62.873935 
L 313.367874 62.6586 
L 313.907663 62.610578 
L 317.193066 62.783851 
L 320.854921 63.167564 
L 322.497622 63.517582 
L 323.665869 63.994882 
L 324.300549 64.548403 
L 324.868339 65.407955 
L 325.924583 67.599376 
L 326.327481 68.852179 
L 326.649488 70.67702 
L 326.948161 73.798015 
L 327.27639 79.960851 
L 327.66062 92.113585 
L 328.407302 125.689304 
L 328.942425 144.781145 
L 329.237987 150.01201 
L 329.433991 150.996359 
L 329.446435 150.990083 
L 329.494659 150.888012 
L 329.662662 149.572896 
L 329.897556 145.307725 
L 330.208674 135.736313 
L 330.9398 103.220825 
L 331.534035 81.240941 
L 331.921377 73.510308 
L 332.333608 69.386264 
L 332.694504 67.551733 
L 333.182959 66.196659 
L 333.707192 65.366829 
L 334.307649 64.781313 
L 335.133667 64.294804 
L 336.165022 63.956653 
L 336.88837 63.917888 
L 337.197932 64.075713 
L 337.507495 64.495747 
L 337.835724 65.40078 
L 338.173286 66.928324 
L 339.167307 71.945603 
L 339.388201 72.171753 
L 339.479981 72.114031 
L 339.733542 71.521567 
L 340.147328 69.564591 
L 341.002902 65.313654 
L 341.489801 64.115103 
L 341.920699 63.666242 
L 342.43871 63.490872 
L 343.302061 63.443057 
L 349.942868 63.514498 
L 351.850019 63.645739 
L 352.35403 63.872772 
L 352.732038 64.185481 
L 353.607834 64.950035 
L 353.880062 64.980979 
L 354.331183 64.732478 
L 355.332982 63.901875 
L 356.022108 63.734499 
L 357.398803 63.774852 
L 359.559516 64.018998 
L 360.228419 64.235216 
L 360.611093 64.566149 
L 360.839765 65.013393 
L 361.097992 66.058492 
L 361.362442 68.300411 
L 361.650226 73.10194 
L 361.987789 83.10595 
L 362.603802 110.367471 
L 363.132702 130.502824 
L 363.47182 136.789335 
L 363.633602 137.52889 
L 363.658491 137.508832 
L 363.742493 137.177528 
L 363.907385 135.35736 
L 364.112723 131.011285 
L 364.496953 117.590998 
L 365.616977 73.170086 
L 365.962317 67.808913 
L 366.296769 65.629467 
L 366.609442 64.854575 
L 366.985895 64.522146 
L 367.39657 64.39573 
L 368.488593 64.34329 
L 369.42039 64.500683 
L 369.768842 64.71507 
L 370.059737 65.160777 
L 370.314854 66.053454 
L 370.562192 67.845748 
L 370.857754 72.130828 
L 371.175094 80.511294 
L 371.671327 100.867798 
L 372.385342 128.824946 
L 372.713571 134.763984 
L 372.878463 135.518665 
L 372.90802 135.491104 
L 372.998244 135.100726 
L 373.177136 132.980932 
L 373.475809 125.703842 
L 373.922263 108.15802 
L 374.754503 75.402097 
L 375.096732 69.001796 
L 375.428073 66.246496 
L 375.703412 65.381159 
L 375.935195 65.191931 
L 376.117198 65.283314 
L 376.358315 65.702812 
L 376.660099 66.741889 
L 377.128331 69.426505 
L 377.823679 73.410383 
L 378.086573 73.83926 
L 378.212576 73.737057 
L 378.438136 73.079345 
L 378.769477 71.288787 
L 379.464825 67.418361 
L 379.772831 66.813416 
L 379.926834 66.834925 
L 380.146172 67.171882 
L 381.189972 69.35403 
L 381.357976 69.214241 
L 381.678427 68.475712 
L 382.849785 65.014616 
L 383.227793 64.672107 
L 383.60269 64.628208 
L 385.068054 64.901844 
L 387.032762 64.425338 
L 389.980602 64.4881 
L 390.759952 64.606479 
L 391.20485 64.88149 
L 391.649748 65.504056 
L 392.945554 67.814957 
L 393.163336 67.705178 
L 393.50401 67.161968 
L 394.540032 65.105144 
L 395.006708 64.754709 
L 395.574498 64.644121 
L 396.598075 64.699487 
L 397.144087 64.90463 
L 397.588985 65.29187 
L 398.72612 66.498374 
L 399.024793 66.448471 
L 399.365467 66.148578 
L 400.368821 65.042008 
L 400.916388 64.823554 
L 401.734628 64.777362 
L 407.977204 64.967381 
L 408.839 65.159711 
L 409.378789 65.529003 
L 409.920134 66.156077 
L 410.346365 66.945018 
L 410.682372 68.180959 
L 410.998157 70.497142 
L 411.334164 74.833166 
L 412.001511 87.624742 
L 412.483744 94.497237 
L 412.734193 95.504918 
L 412.794861 95.437603 
L 412.941087 94.776349 
L 413.197759 92.028511 
L 413.592878 84.914152 
L 414.387784 70.550395 
L 414.764236 67.244535 
L 415.100243 65.927058 
L 415.434695 65.422479 
L 415.854704 65.236949 
L 416.775612 65.190775 
L 423.477087 65.32651 
L 438.063839 65.793532 
L 438.538294 65.974119 
L 438.833855 66.33013 
L 439.088972 67.02249 
L 439.381423 68.65443 
L 439.673873 71.695761 
L 440.064326 78.44584 
L 441.153238 99.190914 
L 441.375687 100.027575 
L 441.386576 100.023145 
L 441.4488 99.916077 
L 441.632359 98.803808 
L 441.927921 94.750689 
L 442.5066 82.175056 
L 443.065056 71.78244 
L 443.453953 68.094945 
L 443.807072 66.664764 
L 444.16019 66.148734 
L 444.58331 65.975815 
L 445.368882 65.93088 
L 445.729779 65.930172 
L 445.729779 65.930172 
" clip-path="url(#pef661e320f)" style="fill: none; stroke: #ff7f0e; stroke-width: 1.5; stroke-linecap: square"/>
   </g>
   <g id="patch_3">
    <path d="M 72.338786 292.12 
L 72.338786 15.12 
" style="fill: none; stroke: #000000; stroke-width: 0.8; stroke-linejoin: miter; stroke-linecap: square"/>
   </g>
   <g id="patch_4">
    <path d="M 445.68 292.12 
L 445.68 15.12 
" style="fill: none; stroke: #000000; stroke-width: 0.8; stroke-linejoin: miter; stroke-linecap: square"/>
   </g>
   <g id="patch_5">
    <path d="M 72.338786 292.12 
L 445.68 292.12 
" style="fill: none; stroke: #000000; stroke-width: 0.8; stroke-linejoin: miter; stroke-linecap: square"/>
   </g>
   <g id="patch_6">
    <path d="M 72.338786 15.12 
L 445.68 15.12 
" style="fill: none; stroke: #000000; stroke-width: 0.8; stroke-linejoin: miter; stroke-linecap: square"/>
   </g>
   <g id="legend_1">
    <g id="patch_7">
     <path d="M 316.551791 287.419006 
L 439.891791 287.419006 
Q 442.691791 287.419006 442.691791 284.619006 
L 442.691791 244.920256 
Q 442.691791 242.120256 439.891791 242.120256 
L 316.551791 242.120256 
Q 313.751791 242.120256 313.751791 244.920256 
L 313.751791 284.619006 
Q 313.751791 287.419006 316.551791 287.419006 
z
" style="fill: #ffffff; opacity: 0.8; stroke: #cccccc; stroke-linejoin: miter"/>
    </g>
    <g id="line2d_28">
     <path d="M 319.351791 253.458068 
L 333.351791 253.458068 
L 347.351791 253.458068 
" style="fill: none; stroke: #1f77b4; stroke-width: 1.5; stroke-linecap: square"/>
    </g>
    <g id="text_11">
     <!-- NR $\sigma_0=10$ -->
     <g transform="translate(358.551791 258.358068) scale(0.14 -0.14)">
      <defs>
       <path id="DejaVuSans-4e" d="M 628 4666 
L 1478 4666 
L 3547 763 
L 3547 4666 
L 4159 4666 
L 4159 0 
L 3309 0 
L 1241 3903 
L 1241 0 
L 628 0 
L 628 4666 
z
" transform="scale(0.015625)"/>
       <path id="DejaVuSans-52" d="M 2841 2188 
Q 3044 2119 3236 1894 
Q 3428 1669 3622 1275 
L 4263 0 
L 3584 0 
L 2988 1197 
Q 2756 1666 2539 1819 
Q 2322 1972 1947 1972 
L 1259 1972 
L 1259 0 
L 628 0 
L 628 4666 
L 2053 4666 
Q 2853 4666 3247 4331 
Q 3641 3997 3641 3322 
Q 3641 2881 3436 2590 
Q 3231 2300 2841 2188 
z
M 1259 4147 
L 1259 2491 
L 2053 2491 
Q 2509 2491 2742 2702 
Q 2975 2913 2975 3322 
Q 2975 3731 2742 3939 
Q 2509 4147 2053 4147 
L 1259 4147 
z
" transform="scale(0.015625)"/>
       <path id="DejaVuSans-Oblique-3c3" d="M 2219 3044 
Q 1744 3044 1422 2700 
Q 1081 2341 969 1747 
Q 844 1119 1044 756 
Q 1241 397 1706 397 
Q 2166 397 2503 759 
Q 2844 1122 2966 1747 
Q 3075 2319 2881 2700 
Q 2700 3044 2219 3044 
z
M 2309 3503 
L 4219 3500 
L 4106 2925 
L 3463 2925 
Q 3706 2438 3575 1747 
Q 3406 888 2884 400 
Q 2359 -91 1609 -91 
Q 856 -91 525 400 
Q 194 888 363 1747 
Q 528 2609 1050 3097 
Q 1484 3503 2309 3503 
z
" transform="scale(0.015625)"/>
       <path id="DejaVuSans-3d" d="M 678 2906 
L 4684 2906 
L 4684 2381 
L 678 2381 
L 678 2906 
z
M 678 1631 
L 4684 1631 
L 4684 1100 
L 678 1100 
L 678 1631 
z
" transform="scale(0.015625)"/>
      </defs>
      <use xlink:href="#DejaVuSans-4e" transform="translate(0 0.78125)"/>
      <use xlink:href="#DejaVuSans-52" transform="translate(71.179688 0.78125)"/>
      <use xlink:href="#DejaVuSans-20" transform="translate(140.662109 0.78125)"/>
      <use xlink:href="#DejaVuSans-Oblique-3c3" transform="translate(172.449219 0.78125)"/>
      <use xlink:href="#DejaVuSans-30" transform="translate(235.828125 -15.625) scale(0.7)"/>
      <use xlink:href="#DejaVuSans-3d" transform="translate(302.581055 0.78125)"/>
      <use xlink:href="#DejaVuSans-31" transform="translate(405.852539 0.78125)"/>
      <use xlink:href="#DejaVuSans-30" transform="translate(469.475586 0.78125)"/>
     </g>
    </g>
    <g id="line2d_29">
     <path d="M 319.351791 274.007443 
L 333.351791 274.007443 
L 347.351791 274.007443 
" style="fill: none; stroke: #ff7f0e; stroke-width: 1.5; stroke-linecap: square"/>
    </g>
    <g id="text_12">
     <!-- WR $\sigma_0=10$ -->
     <g transform="translate(358.551791 278.907443) scale(0.14 -0.14)">
      <defs>
       <path id="DejaVuSans-57" d="M 213 4666 
L 850 4666 
L 1831 722 
L 2809 4666 
L 3519 4666 
L 4500 722 
L 5478 4666 
L 6119 4666 
L 4947 0 
L 4153 0 
L 3169 4050 
L 2175 0 
L 1381 0 
L 213 4666 
z
" transform="scale(0.015625)"/>
      </defs>
      <use xlink:href="#DejaVuSans-57" transform="translate(0 0.78125)"/>
      <use xlink:href="#DejaVuSans-52" transform="translate(98.876953 0.78125)"/>
      <use xlink:href="#DejaVuSans-20" transform="translate(168.359375 0.78125)"/>
      <use xlink:href="#DejaVuSans-Oblique-3c3" transform="translate(200.146484 0.78125)"/>
      <use xlink:href="#DejaVuSans-30" transform="translate(263.525391 -15.625) scale(0.7)"/>
      <use xlink:href="#DejaVuSans-3d" transform="translate(330.27832 0.78125)"/>
      <use xlink:href="#DejaVuSans-31" transform="translate(433.549805 0.78125)"/>
      <use xlink:href="#DejaVuSans-30" transform="translate(497.172852 0.78125)"/>
     </g>
    </g>
   </g>
  </g>
 </g>
 <defs>
  <clipPath id="pef661e320f">
   <rect x="72.338786" y="15.12" width="373.341214" height="277"/>
  </clipPath>
 </defs>
</svg>
